<?xml version="1.0" encoding="UTF-8" standalone="no"?><svg xmlns="http://www.w3.org/2000/svg" xmlns:xlink="http://www.w3.org/1999/xlink" fill="#000000" height="500" preserveAspectRatio="xMidYMid meet" version="1" viewBox="0.0 0.0 298.3 500.0" width="298.3" zoomAndPan="magnify"><g id="change1_1"><path d="M27.1,382.6l-16.5-13.4c43.7-53.7,55.2-110.8,34.3-169.6c-15.8-44.3-44.6-72.7-44.9-73l14.8-15.2 c1.3,1.3,32.6,32.3,50,81.1C81.1,238,87.7,308,27.1,382.6z M165.5,161.3c-25.6-68-72.4-108.7-74.4-110.4l-18.9,22 c0.4,0.4,43.8,38.3,66.6,99.7c30.2,81.2,12,163.8-54.1,245.6l22.5,18.2C198.5,323.4,189.3,224.4,165.5,161.3z M266.7,151.5 C238.9,60.7,183.5,2.4,181.2,0l-27.8,26.8c0.5,0.5,51.3,54,76.4,136c33.4,109.1,6.6,214-79.8,311.6l28.9,25.6 C298.3,365,292.6,236,266.7,151.5z" fill="#ff0000"/></g></svg>