<?xml version="1.0" encoding="UTF-8"?><svg xmlns="http://www.w3.org/2000/svg" xmlns:xlink="http://www.w3.org/1999/xlink" height="1233.4" preserveAspectRatio="xMidYMid meet" version="1.0" viewBox="0.0 0.0 1233.4 1233.4" width="1233.4" zoomAndPan="magnify"><defs><clipPath id="a"><path d="M 0 0 L 1233.429688 0 L 1233.429688 1233.429688 L 0 1233.429688 Z M 0 0"/></clipPath></defs><g><g clip-path="url(#a)" id="change1_1"><path d="M 1233.429688 616.714844 C 1233.429688 957.316406 957.316406 1233.429688 616.714844 1233.429688 C 276.113281 1233.429688 0 957.316406 0 616.714844 C 0 276.113281 276.113281 0 616.714844 0 C 957.316406 0 1233.429688 276.113281 1233.429688 616.714844" fill="#040404"/></g><g id="change2_1"><path d="M 56.53125 681.558594 C 56.128906 694.34375 56.214844 707.238281 56.8125 720.234375 C 68.507812 973.128906 269.742188 1172.398438 516.898438 1187.121094 C 278.941406 1119.128906 95.894531 924.738281 56.53125 681.558594" fill="#fff"/></g><g id="change2_2"><path d="M 897.101562 616.714844 C 897.101562 771.566406 771.566406 897.101562 616.714844 897.101562 C 461.859375 897.101562 336.328125 771.566406 336.328125 616.714844 C 336.328125 461.859375 461.859375 336.328125 616.714844 336.328125 C 771.566406 336.328125 897.101562 461.859375 897.101562 616.714844" fill="#fff"/></g><g id="change3_1"><path d="M 576.390625 537.644531 C 576.390625 550.261719 579.957031 560.097656 587.09375 567.15625 C 594.222656 574.21875 603.722656 577.742188 615.589844 577.742188 C 627.601562 577.742188 637.214844 574.175781 644.421875 567.042969 C 651.628906 559.914062 655.234375 550.035156 655.234375 537.421875 C 655.234375 525.5625 651.664062 516.058594 644.535156 508.925781 C 637.402344 501.796875 627.976562 498.222656 616.265625 498.222656 C 604.101562 498.222656 594.414062 501.828125 587.203125 509.035156 C 579.996094 516.246094 576.390625 525.789062 576.390625 537.644531 Z M 570.535156 679.113281 C 570.535156 696.539062 575.003906 710.125 583.9375 719.886719 C 592.871094 729.652344 604.019531 734.527344 617.390625 734.527344 C 630.457031 734.527344 641.269531 729.835938 649.828125 720.449219 C 658.386719 711.070312 662.667969 697.511719 662.667969 679.789062 C 662.667969 664.328125 658.308594 651.894531 649.601562 642.507812 C 640.894531 633.128906 629.855469 628.429688 616.488281 628.429688 C 601.019531 628.429688 589.492188 633.757812 581.910156 644.421875 C 574.328125 655.089844 570.535156 666.648438 570.535156 679.113281 Z M 563.324219 601.394531 C 546.957031 594.492188 535.054688 584.988281 527.621094 572.898438 C 520.1875 560.816406 516.472656 547.558594 516.472656 533.140625 C 516.472656 508.511719 525.066406 488.167969 542.265625 472.09375 C 559.460938 456.023438 583.898438 447.988281 615.589844 447.988281 C 646.976562 447.988281 671.339844 456.023438 688.6875 472.09375 C 706.03125 488.167969 714.707031 508.511719 714.707031 533.140625 C 714.707031 548.457031 710.726562 562.085938 702.765625 574.027344 C 694.804688 585.964844 683.617188 595.089844 669.203125 601.394531 C 687.523438 608.753906 701.449219 619.496094 710.988281 633.609375 C 720.523438 647.726562 725.292969 664.019531 725.292969 682.492188 C 725.292969 712.984375 715.570312 737.761719 696.121094 756.828125 C 676.667969 775.902344 650.804688 785.4375 618.515625 785.4375 C 588.476562 785.4375 563.472656 777.554688 543.503906 761.785156 C 519.925781 743.171875 508.136719 717.632812 508.136719 685.195312 C 508.136719 667.324219 512.5625 650.921875 521.425781 635.976562 C 530.285156 621.03125 544.253906 609.507812 563.324219 601.394531" fill="inherit"/></g></g></svg>