<?xml version="1.0" encoding="UTF-8" standalone="no"?><svg xmlns="http://www.w3.org/2000/svg" xmlns:xlink="http://www.w3.org/1999/xlink" data-name="Layer 1" fill="#000000" height="1538" preserveAspectRatio="xMidYMid meet" version="1" viewBox="93.2 544.8 2837.0 1538.0" width="2837" zoomAndPan="magnify"><g id="change1_1"><path d="M2930.17,834.75c-66.39,20.39-115.82,111.15-134.46,178.06-27.68,99.34-128,201.06-214.17,161.65-87.45-40,15.1-227.49,133.32-231-136.39-58-214,95.81-272.08,73.87-89-33.67,150-208.84,164.95-254.86-225.83,51-139.11-163.54,17-210.26-88.14-7.43-231.5,96.63-284.59,165.66-35.06,45.57-86,89.16-142.53,78.81-85.89-15.71,21.72-191.46,99.53-248.36-151.74,34.06-191.69,166.74-290,192.84-29,7.71-64.62,6-83.17-17.58-28.51-36.3,3.67-95.6,41.77-113.84-62.2,3.34-106.64,58.75-140.15,111.26s-89,108.17-148.4,89.41c-59-18.64-72-104.2-37.43-155.54s97.6-74.67,157.58-89.9a345.62,345.62,0,0,0-213.32,68.69c-120.75,90.78-176.45,256.55-311.27,324.72a263.07,263.07,0,0,1-34.23,14.35H648.16c-306.53,0-555,248.49-555,555h0c0,306.53,248.5,555,555,555H2035.72a558.13,558.13,0,0,0,90.44-7.34c333.05-14.71,436.31-181.9,463.06-217.73,50.77-68,150.36-94,184.23-171.83-34.13,23-86.32,43.45-110.54,10.19-19.68-27,.64-65.46,26-87.32,52.62-45.47,128.75-65.83,164-125.77,27.57-46.9,22.18-105.36,15.93-159.4-49.16,33.34-35.86,128.13-92.87,144.82-42.3,12.39-80.45-40.28-71.66-83.47s45.74-74.26,81.44-100.11,74.5-52.58,90.61-93.61c19.32-49.19.63-104-3.95-156.64C2866.22,963.87,2887.25,891.2,2930.17,834.75Z" fill="#ff0000"/></g><g id="change2_1"><path d="M2035.72,2006.3H648.16a478.58,478.58,0,1,1,0-957.16H2035.72a478.58,478.58,0,1,1,0,957.16ZM648.16,1079.14a448.58,448.58,0,1,0,0,897.16H2035.72a448.58,448.58,0,1,0,0-897.16Z" fill="#f9f4f4"/></g></svg>